:FULLY-SPECIFIED
:FORCE-ALL-JOINTS-BE-3DOF
:DEGREES
679
root 5.38429 16.3875 0.772563 16.232 -21.4602 1.08424
lfemur -31.8911 25.6169 -12.5924
ltibia 89.114 0 0
lfoot 4.4557 -3.74693 0
ltoes 6.88498 0 0
rfemur -38.9805 -14.0525 26.6079
rtibia 55.3588 0 0
rfoot -17.2242 -5.58894 0
rtoes 2.28366 0 0
lowerback -0.170227 -6.07638 -0.952435
upperback -1.99224 -8.15051 0.368653
thorax -1.75536 -4.063 0.975873
lowerneck -9.45949 -4.42879 0.288589
upperneck 2.09626 -6.11801 3.15038
head 2.39772 -2.95104 0.655052
lclavicle 7.38515e-15 -3.74396e-16 0
lhumerus 2.30971 -62.0826 70.2588
lradius 85.2043 0 0
lwrist 28.32 0 0
lhand -13.8164 -1.36975 0
lfingers 7.12502 0 0
lthumb 12.3044 28.2119 0
rclavicle 7.38515e-15 -3.74396e-16 0
rhumerus -48.1637 -11.994 -43.884
rradius 73.0901 0 0
rwrist -18.32 0 0
rhand -28.8158 -46.9675 0
rfingers 7.12502 0 0
rthumb -2.17352 -796.921 0
680
root 5.37666 16.5389 0.963301 15.9818 -23.49 1.20225
lfemur -33.1663 24.8865 -9.83363
ltibia 92.0619 0 0
lfoot 4.83608 -3.75063 0
ltoes 8.75189 0 0
rfemur -36.5735 -13.0451 25.5997
rtibia 51.7061 0 0
rfoot -15.2058 -4.93428 0
rtoes 2.28378 0 0
lowerback 0.0613211 -5.94575 -1.06256
upperback -1.97666 -7.9895 0.150834
thorax -1.88598 -3.9815 0.834794
lowerneck -9.21826 -4.44764 0.264314
upperneck 2.25502 -6.15384 3.31956
head 2.41539 -2.96414 0.715634
lclavicle 4.94751e-15 1.59027e-15 0
lhumerus 4.57803 -59.4402 65.9058
lradius 84.8983 0 0
lwrist 28.4455 0 0
lhand -14.4138 -1.74583 0
lfingers 7.12502 0 0
lthumb 11.7281 27.8622 0
rclavicle 4.94751e-15 1.59027e-15 0
rhumerus -47.3098 -11.7559 -41.7699
rradius 75.2209 0 0
rwrist -17.7646 0 0
rhand -29.2152 -46.5415 0
rfingers 7.12502 0 0
rthumb -2.5592 -796.488 0
681
root 5.36847 16.7016 1.16822 15.7129 -25.6707 1.32904
lfemur -34.5364 24.1019 -6.86983
ltibia 95.229 0 0
lfoot 5.24473 -3.75462 0
ltoes 10.7576 0 0
rfemur -33.9876 -11.9628 24.5164
rtibia 47.7818 0 0
rfoot -13.0373 -4.23095 0
rtoes 2.28391 0 0
lowerback 0.310082 -5.80542 -1.18088
upperback -1.95991 -7.81653 -0.0831772
thorax -2.02632 -3.89394 0.683227
lowerneck -8.95909 -4.46789 0.238235
upperneck 2.42558 -6.19233 3.50131
head 2.43436 -2.97821 0.780719
lclavicle 2.32867e-15 3.70097e-15 0
lhumerus 7.01496 -56.6014 61.2291
lradius 84.5696 0 0
lwrist 28.5803 0 0
lhand -15.0555 -2.14986 0
lfingers 7.12502 0 0
lthumb 11.109 27.4864 0
rclavicle 2.32867e-15 3.70097e-15 0
rhumerus -46.3924 -11.5001 -39.4987
rradius 77.5102 0 0
rwrist -17.1679 0 0
rhand -29.6443 -46.0838 0
rfingers 7.12502 0 0
rthumb -2.97354 -796.022 0
682
root 5.35987 16.8722 1.38326 15.4307 -27.9592 1.46209
lfemur -35.9741 23.2785 -3.75955
ltibia 98.5525 0 0
lfoot 5.67359 -3.75879 0
ltoes 12.8624 0 0
rfemur -31.2739 -10.827 23.3797
rtibia 43.6636 0 0
rfoot -10.7616 -3.49286 0
rtoes 2.28404 0 0
lowerback 0.571138 -5.65815 -1.30504
upperback -1.94234 -7.63501 -0.328754
thorax -2.17358 -3.80205 0.524168
lowerneck -8.68711 -4.48915 0.210866
upperneck 2.60457 -6.23273 3.69205
head 2.45428 -2.99298 0.84902
lclavicle -4.19604e-16 5.916e-15 0
lhumerus 9.57234 -53.6223 56.3213
lradius 84.2247 0 0
lwrist 28.7217 0 0
lhand -15.729 -2.57386 0
lfingers 7.12502 0 0
lthumb 10.4592 27.092 0
rclavicle -4.19604e-16 5.916e-15 0
rhumerus -45.4296 -11.2317 -37.1153
rradius 79.9126 0 0
rwrist -16.5418 0 0
rhand -30.0946 -45.6034 0
rfingers 7.12502 0 0
rthumb -3.40836 -795.534 0
683
root 5.35102 17.0477 1.60438 15.1406 -30.3124 1.5989
lfemur -37.4524 22.4319 -0.561383
ltibia 101.97 0 0
lfoot 6.11456 -3.76309 0
ltoes 15.0267 0 0
rfemur -28.4835 -9.65912 22.2108
rtibia 39.429 0 0
rfoot -8.42165 -2.73391 0
rtoes 2.28418 0 0
lowerback 0.83957 -5.50671 -1.43271
upperback -1.92427 -7.44836 -0.58127
thorax -2.32501 -3.70757 0.360616
lowerneck -8.40745 -4.511 0.182724
upperneck 2.78861 -6.27426 3.88818
head 2.47476 -3.00816 0.919252
lclavicle -3.24554e-15 8.19362e-15 0
lhumerus 12.202 -50.559 51.2749
lradius 83.87 0 0
lwrist 28.8672 0 0
lhand -16.4215 -3.00985 0
lfingers 7.12502 0 0
lthumb 9.79111 26.6865 0
rclavicle -3.24554e-15 8.19362e-15 0
rhumerus -44.4397 -10.9557 -34.6644
rradius 82.3829 0 0
rwrist -15.8979 0 0
rhand -30.5576 -45.1095 0
rfingers 7.12502 0 0
rthumb -3.85547 -795.031 0
684
root 5.3421 17.2249 1.82753 14.8478 -32.6871 1.73696
lfemur -38.9444 21.5774 2.66608
ltibia 105.419 0 0
lfoot 6.55957 -3.76743 0
ltoes 17.2108 0 0
rfemur -25.6675 -8.48053 21.0312
rtibia 35.1557 0 0
rfoot -6.06024 -1.96801 0
rtoes 2.28432 0 0
lowerback 1.11046 -5.35389 -1.56154
upperback -1.90604 -7.26 -0.8361
thorax -2.47783 -3.61222 0.195565
lowerneck -8.12522 -4.53306 0.154325
upperneck 2.97435 -6.31618 4.0861
head 2.49542 -3.02349 0.990127
lclavicle -6.09736e-15 1.04921e-14 0
lhumerus 14.8557 -47.4677 46.1822
lradius 83.5121 0 0
lwrist 29.0139 0 0
lhand -17.1203 -3.44983 0
lfingers 7.12502 0 0
lthumb 9.11688 26.2773 0
rclavicle -6.09736e-15 1.04921e-14 0
rhumerus -43.4407 -10.6771 -32.1912
rradius 84.8758 0 0
rwrist -15.2482 0 0
rhand -31.0249 -44.6111 0
rfingers 7.12502 0 0
rthumb -4.30668 -794.524 0
685
root 5.33325 17.4004 2.04865 14.5577 -35.0403 1.87377
lfemur -40.4227 20.7308 5.86425
ltibia 108.836 0 0
lfoot 7.00054 -3.77173 0
ltoes 19.3751 0 0
rfemur -22.8771 -7.31263 19.8623
rtibia 30.9211 0 0
rfoot -3.72027 -1.20906 0
rtoes 2.28446 0 0
lowerback 1.37889 -5.20245 -1.68921
upperback -1.88797 -7.07335 -1.08862
thorax -2.62926 -3.51774 0.0320125
lowerneck -7.84556 -4.55491 0.126183
upperneck 3.15839 -6.35771 4.28223
head 2.5159 -3.03867 1.06036
lclavicle -8.9233e-15 1.27697e-14 0
lhumerus 17.4854 -44.4044 41.1358
lradius 83.1574 0 0
lwrist 29.1594 0 0
lhand -17.8128 -3.88581 0
lfingers 7.12502 0 0
lthumb 8.44876 25.8718 0
rclavicle -8.9233e-15 1.27697e-14 0
rhumerus -42.4508 -10.4011 -29.7403
rradius 87.3461 0 0
rwrist -14.6043 0 0
rhand -31.4879 -44.1172 0
rfingers 7.12502 0 0
rthumb -4.75379 -794.021 0
686
root 5.32465 17.571 2.26369 14.2755 -37.3288 2.00682
lfemur -41.8604 19.9074 8.97453
ltibia 112.16 0 0
lfoot 7.4294 -3.7759 0
ltoes 21.4799 0 0
rfemur -20.1634 -6.17683 18.7256
rtibia 26.8029 0 0
rfoot -1.4446 -0.470973 0
rtoes 2.28459 0 0
lowerback 1.63995 -5.05518 -1.81338
upperback -1.8704 -6.89183 -1.33419
thorax -2.77652 -3.42585 -0.127046
lowerneck -7.57358 -4.57617 0.0988145
upperneck 3.33738 -6.39811 4.47297
head 2.53582 -3.05344 1.12866
lclavicle -1.16716e-14 1.49847e-14 0
lhumerus 20.0427 -41.4253 36.228
lradius 82.8125 0 0
lwrist 29.3008 0 0
lhand -18.4863 -4.30981 0
lfingers 7.12502 0 0
lthumb 7.79901 25.4774 0
rclavicle -1.16716e-14 1.49847e-14 0
rhumerus -41.488 -10.1327 -27.3569
rradius 89.7485 0 0
rwrist -13.9782 0 0
rhand -31.9382 -43.6368 0
rfingers 7.12502 0 0
rthumb -5.18861 -793.533 0
687
root 5.31646 17.7337 2.46861 14.0066 -39.5095 2.1336
lfemur -43.2305 19.1228 11.9383
ltibia 115.327 0 0
lfoot 7.83805 -3.77989 0
ltoes 23.4856 0 0
rfemur -17.5775 -5.09453 17.6423
rtibia 22.8786 0 0
rfoot 0.723893 0.232357 0
rtoes 2.28472 0 0
lowerback 1.88871 -4.91485 -1.93169
upperback -1.85365 -6.71886 -1.5682
thorax -2.91686 -3.33829 -0.278613
lowerneck -7.31441 -4.59642 0.072735
upperneck 3.50794 -6.4366 4.65472
head 2.55479 -3.06751 1.19375
lclavicle -1.42904e-14 1.70955e-14 0
lhumerus 22.4797 -38.5865 31.5513
lradius 82.4838 0 0
lwrist 29.4356 0 0
lhand -19.128 -4.71385 0
lfingers 7.12502 0 0
lthumb 7.17986 25.1016 0
rclavicle -1.42904e-14 1.70955e-14 0
rhumerus -40.5706 -9.87686 -25.0857
rradius 92.0378 0 0
rwrist -13.3815 0 0
rhand -32.3673 -43.1791 0
rfingers 7.12502 0 0
rthumb -5.60295 -793.067 0
